<svg width="246" height="50" viewBox="0 0 246 50" fill="none" xmlns="http://www.w3.org/2000/svg">
<path d="M52.0918 38.1489V2.35466L98.113 1.62416L98.8435 37.4184L89.3471 47.6454L74.7372 36.6879L61.5882 47.6454L52.0918 38.1489Z" fill="white" stroke="black" stroke-width="1.46099"/>
<path d="M38.8044 50H0.226562V0.000648499H38.8044L50.2259 11.1237L38.8044 25.0003L50.2259 38.5785L38.8044 50Z" fill="#1D1D1E"/>
<path d="M50.2255 -4.57764e-05V38.5778L61.6402 49.9925L75.2184 38.5778L89.095 49.9925L100.218 38.5778V-4.57764e-05H50.2188H50.2255ZM96.5488 37.0857L88.8237 45.0142L75.1981 33.8031L61.8572 45.021L53.8948 37.0586V3.66919H96.5488V37.0857Z" fill="#1D1D1E"/>
<path d="M120.426 45.7474C120.684 45.7949 120.915 45.8762 121.132 45.9848C121.349 46.0933 121.532 46.2289 121.681 46.3917C121.837 46.5545 121.952 46.7376 122.04 46.9546C122.129 47.1649 122.169 47.4023 122.169 47.66C122.169 48.3789 121.905 48.9215 121.383 49.3013C120.86 49.6811 120.08 49.871 119.049 49.871H116.289V41.9425H118.982C119.897 41.9425 120.603 42.1188 121.091 42.4783C121.579 42.8378 121.823 43.3464 121.823 44.0179C121.823 44.2281 121.79 44.4316 121.728 44.6147C121.667 44.7978 121.572 44.9674 121.45 45.1166C121.328 45.2658 121.179 45.3947 121.01 45.5032C120.84 45.6117 120.637 45.6931 120.42 45.7474H120.426ZM117.578 45.2184H119.104C119.348 45.2184 119.558 45.1912 119.734 45.137C119.911 45.0827 120.053 45.0081 120.169 44.9132C120.277 44.8182 120.365 44.7029 120.413 44.5673C120.46 44.4316 120.494 44.2824 120.494 44.1264C120.494 43.9704 120.467 43.828 120.413 43.6991C120.358 43.5702 120.277 43.4617 120.162 43.3668C120.046 43.2718 119.904 43.204 119.721 43.1497C119.538 43.0955 119.321 43.0751 119.07 43.0751H117.571V45.2184H117.578ZM119.212 48.7316C119.504 48.7316 119.748 48.7045 119.945 48.6434C120.148 48.5824 120.304 48.501 120.426 48.3993C120.548 48.2975 120.637 48.1754 120.691 48.0262C120.745 47.877 120.772 47.721 120.772 47.5583C120.772 47.3955 120.738 47.2191 120.677 47.0767C120.616 46.9275 120.521 46.8054 120.392 46.7037C120.264 46.6019 120.101 46.5206 119.897 46.4663C119.694 46.412 119.456 46.3781 119.172 46.3781H117.571V48.7384H119.205L119.212 48.7316Z" fill="#1D1D1E"/>
<path d="M125.039 41.9416H129.97V43.1285H126.355V45.2039H128.993V46.3434H126.355V48.6765H130.302V49.8634H125.032V41.9348L125.039 41.9416Z" fill="#1D1D1E"/>
<path d="M138.855 43.1294H136.495V41.9425H142.531V43.1294H140.171V49.8642H138.855V43.1294Z" fill="#1D1D1E"/>
<path d="M151.713 41.9425V49.871H150.397V46.5002H146.626V49.871H145.311V41.9425H146.626V45.3065H150.397V41.9425H151.713Z" fill="#1D1D1E"/>
<path d="M155.354 41.9416H160.285V43.1285H156.67V45.2039H159.309V46.3434H156.67V48.6765H160.618V49.8634H155.354V41.9348V41.9416Z" fill="#1D1D1E"/>
<path d="M172.081 45.7474C172.338 45.7949 172.576 45.8762 172.786 45.9848C172.996 46.0933 173.179 46.2289 173.335 46.3917C173.491 46.5545 173.613 46.7376 173.695 46.9546C173.783 47.1649 173.824 47.4023 173.824 47.66C173.824 48.3789 173.559 48.9215 173.037 49.3013C172.508 49.6811 171.735 49.871 170.704 49.871H167.943V41.9425H170.636C171.552 41.9425 172.257 42.1188 172.745 42.4783C173.234 42.8378 173.478 43.3464 173.478 44.0179C173.478 44.2281 173.444 44.4316 173.383 44.6147C173.322 44.7978 173.227 44.9674 173.105 45.1166C172.983 45.2658 172.833 45.3947 172.664 45.5032C172.488 45.6117 172.291 45.6931 172.074 45.7474H172.081ZM169.232 45.2184H170.758C171.002 45.2184 171.212 45.1912 171.389 45.137C171.565 45.0827 171.708 45.0081 171.823 44.9132C171.931 44.8182 172.02 44.7029 172.067 44.5673C172.114 44.4316 172.148 44.2824 172.148 44.1264C172.148 43.9704 172.121 43.828 172.067 43.6991C172.013 43.5702 171.931 43.4617 171.816 43.3668C171.701 43.2718 171.552 43.204 171.375 43.1497C171.192 43.0955 170.975 43.0751 170.724 43.0751H169.225V45.2184H169.232ZM170.867 48.7316C171.158 48.7316 171.402 48.7045 171.599 48.6434C171.796 48.5824 171.959 48.501 172.081 48.3993C172.203 48.2975 172.291 48.1754 172.345 48.0262C172.399 47.8838 172.426 47.721 172.426 47.5583C172.426 47.3955 172.393 47.2191 172.332 47.0767C172.27 46.9275 172.176 46.8054 172.047 46.7037C171.918 46.6019 171.755 46.5206 171.552 46.4663C171.348 46.412 171.104 46.3781 170.826 46.3781H169.225V48.7384H170.86L170.867 48.7316Z" fill="#1D1D1E"/>
<path d="M180.021 50C179.438 50 178.916 49.8982 178.434 49.7015C177.959 49.5048 177.552 49.22 177.22 48.8605C176.881 48.5011 176.623 48.0738 176.44 47.5719C176.257 47.07 176.162 46.5206 176.162 45.917C176.162 45.3134 176.25 44.764 176.44 44.2621C176.623 43.7602 176.881 43.3261 177.22 42.9667C177.552 42.6072 177.959 42.3224 178.434 42.1189C178.909 41.9154 179.438 41.8137 180.021 41.8137C180.605 41.8137 181.127 41.9154 181.608 42.1121C182.09 42.3088 182.497 42.5937 182.836 42.9531C183.175 43.3126 183.44 43.7466 183.623 44.2485C183.806 44.7504 183.901 45.2998 183.901 45.9034C183.901 46.5071 183.806 47.0632 183.623 47.5651C183.44 48.067 183.175 48.4943 182.836 48.8605C182.497 49.22 182.09 49.4981 181.608 49.7015C181.134 49.905 180.598 50 180.014 50H180.021ZM180.021 48.7927C180.394 48.7927 180.733 48.7249 181.039 48.5892C181.344 48.4536 181.602 48.2569 181.819 48.0059C182.036 47.755 182.198 47.4498 182.32 47.0971C182.436 46.7444 182.497 46.3511 182.497 45.9238C182.497 45.4965 182.436 45.0895 182.32 44.7301C182.205 44.3706 182.036 44.0654 181.819 43.8145C181.602 43.5635 181.344 43.3668 181.039 43.2244C180.733 43.082 180.394 43.0142 180.021 43.0142C179.648 43.0142 179.316 43.082 179.011 43.2176C178.712 43.3533 178.455 43.55 178.237 43.8077C178.02 44.0586 177.858 44.3638 177.736 44.7233C177.62 45.0828 177.559 45.4761 177.559 45.9102C177.559 46.3443 177.62 46.7377 177.736 47.0903C177.851 47.443 178.02 47.7482 178.237 47.9992C178.455 48.2501 178.712 48.44 179.011 48.5824C179.309 48.7181 179.648 48.7927 180.021 48.7927Z" fill="#1D1D1E"/>
<path d="M189.198 50C188.757 50 188.289 49.9253 187.801 49.7829C187.313 49.6405 186.817 49.4099 186.322 49.0979L186.682 48.0331C186.858 48.1484 187.055 48.2569 187.272 48.3654C187.489 48.4739 187.706 48.5689 187.93 48.6503C188.154 48.7317 188.377 48.7995 188.601 48.8537C188.825 48.908 189.035 48.9283 189.232 48.9283C189.442 48.9283 189.639 48.9012 189.815 48.8402C189.992 48.7791 190.141 48.6977 190.263 48.596C190.385 48.4943 190.48 48.3722 190.548 48.2298C190.615 48.0873 190.649 47.9381 190.649 47.7821C190.649 47.6329 190.622 47.5041 190.561 47.382C190.507 47.2599 190.405 47.1446 190.276 47.0293C190.141 46.914 189.964 46.7987 189.747 46.6766C189.53 46.5545 189.252 46.4257 188.927 46.29C188.621 46.1544 188.323 46.0187 188.038 45.8763C187.753 45.7339 187.502 45.5711 187.285 45.3812C187.068 45.1913 186.892 44.9742 186.77 44.7301C186.641 44.4859 186.573 44.1875 186.573 43.8416C186.573 43.5228 186.641 43.238 186.777 42.9802C186.912 42.7293 187.102 42.5123 187.34 42.3427C187.577 42.1731 187.862 42.0375 188.187 41.9493C188.513 41.8544 188.866 41.8137 189.245 41.8137C189.483 41.8137 189.713 41.834 189.937 41.8679C190.161 41.9019 190.378 41.9561 190.582 42.0172C190.785 42.0782 190.975 42.1528 191.158 42.2342C191.341 42.3156 191.511 42.4037 191.667 42.4987L191.307 43.5432C191.165 43.455 191.009 43.3668 190.826 43.2854C190.649 43.2041 190.459 43.1362 190.27 43.0752C190.08 43.0142 189.897 42.9667 189.713 42.9328C189.53 42.8989 189.368 42.8785 189.218 42.8785C189.022 42.8785 188.845 42.8989 188.683 42.9396C188.52 42.9802 188.384 43.0413 188.269 43.1227C188.154 43.2041 188.065 43.299 188.004 43.4143C187.943 43.5296 187.909 43.6585 187.909 43.8077C187.909 43.9637 187.95 44.1061 188.038 44.2282C188.126 44.3503 188.242 44.4656 188.398 44.5741C188.547 44.6826 188.73 44.7843 188.94 44.8793C189.151 44.9742 189.381 45.0828 189.632 45.1913C190.019 45.3608 190.358 45.5304 190.649 45.7C190.941 45.8695 191.192 46.0526 191.389 46.2561C191.585 46.4596 191.735 46.6766 191.836 46.9208C191.938 47.1649 191.986 47.443 191.986 47.7618C191.986 48.0806 191.918 48.379 191.775 48.6503C191.633 48.9216 191.443 49.1589 191.192 49.3556C190.948 49.5523 190.649 49.7083 190.304 49.8236C189.958 49.9389 189.585 49.9932 189.178 49.9932L189.198 50Z" fill="#1D1D1E"/>
<path d="M197.141 50C196.7 50 196.232 49.9253 195.744 49.7829C195.256 49.6405 194.761 49.4099 194.266 49.0979L194.625 48.0331C194.801 48.1484 194.998 48.2569 195.215 48.3654C195.432 48.4739 195.649 48.5689 195.873 48.6503C196.097 48.7317 196.321 48.7995 196.544 48.8537C196.768 48.908 196.979 48.9283 197.175 48.9283C197.385 48.9283 197.582 48.9012 197.759 48.8402C197.935 48.7791 198.084 48.6977 198.206 48.596C198.328 48.4943 198.423 48.3722 198.491 48.2298C198.559 48.0873 198.593 47.9381 198.593 47.7821C198.593 47.6329 198.566 47.5041 198.505 47.382C198.45 47.2599 198.349 47.1446 198.22 47.0293C198.084 46.914 197.908 46.7987 197.691 46.6766C197.474 46.5545 197.196 46.4257 196.87 46.29C196.565 46.1544 196.266 46.0187 195.982 45.8763C195.697 45.7339 195.446 45.5711 195.229 45.3812C195.012 45.1913 194.842 44.9742 194.713 44.7301C194.584 44.4859 194.523 44.1875 194.523 43.8416C194.523 43.5228 194.591 43.238 194.727 42.9802C194.862 42.7293 195.052 42.5123 195.29 42.3427C195.527 42.1731 195.812 42.0375 196.138 41.9493C196.463 41.8544 196.816 41.8137 197.189 41.8137C197.426 41.8137 197.657 41.834 197.881 41.8679C198.104 41.9019 198.321 41.9561 198.525 42.0172C198.728 42.0782 198.925 42.1528 199.101 42.2342C199.285 42.3156 199.454 42.4037 199.61 42.4987L199.251 43.5432C199.108 43.455 198.952 43.3668 198.769 43.2854C198.586 43.2041 198.403 43.1362 198.213 43.0752C198.023 43.0142 197.84 42.9667 197.657 42.9328C197.474 42.8989 197.311 42.8785 197.162 42.8785C196.965 42.8785 196.789 42.8989 196.626 42.9396C196.463 42.9802 196.327 43.0413 196.212 43.1227C196.097 43.2041 196.009 43.299 195.948 43.4143C195.887 43.5296 195.853 43.6585 195.853 43.8077C195.853 43.9637 195.893 44.1061 195.982 44.2282C196.07 44.3503 196.185 44.4656 196.341 44.5741C196.49 44.6826 196.673 44.7843 196.884 44.8793C197.094 44.9742 197.324 45.0828 197.575 45.1913C197.962 45.3608 198.301 45.5304 198.593 45.7C198.884 45.8695 199.135 46.0526 199.332 46.2561C199.529 46.4596 199.678 46.6766 199.78 46.9208C199.881 47.1649 199.929 47.443 199.929 47.7618C199.929 48.0806 199.861 48.379 199.719 48.6503C199.576 48.9216 199.386 49.1589 199.135 49.3556C198.891 49.5523 198.593 49.7083 198.247 49.8236C197.901 49.9389 197.528 49.9932 197.121 49.9932L197.141 50Z" fill="#1D1D1E"/>
<path d="M124.319 26.9872C125.635 26.6209 126.442 25.5493 126.442 24.2267C126.442 21.9004 124.719 20.666 121.505 20.666H116.289V33.8305H121.593C125.181 33.8305 127.039 32.5283 127.039 30.0867C127.039 28.4657 125.92 27.3059 124.319 26.9872ZM121.823 31.0905H119.416V23.3857H121.545C122.78 23.3857 123.214 23.9283 123.214 24.6201C123.214 25.2712 122.854 25.7731 121.898 25.8681V28.2961C123.207 28.3436 123.661 28.9337 123.661 29.7204C123.661 30.5072 123.214 31.0837 121.823 31.0837V31.0905Z" fill="#1D1D1E"/>
<path d="M128.016 27.2649C128.016 23.2973 130.62 20.4555 134.656 20.4555C138.691 20.4555 141.35 23.2701 141.35 27.2378C141.35 31.2055 138.725 34.0472 134.656 34.0472C130.586 34.0472 128.016 31.2461 128.016 27.2649ZM137.965 27.2785C137.965 24.8979 136.683 23.3651 134.662 23.3651C132.641 23.3651 131.414 24.8911 131.414 27.2785C131.414 29.6659 132.675 31.1512 134.662 31.1512C136.65 31.1512 137.965 29.6387 137.965 27.2785Z" fill="#1D1D1E"/>
<path d="M142.523 32.5622L143.33 29.9714C144.606 30.7378 146.423 31.511 147.82 31.511C148.756 31.511 149.374 30.9955 149.374 30.3308C149.374 29.5984 148.695 29.1846 146.837 28.3911C144.809 27.523 142.849 26.6074 142.849 24.0708C142.849 21.7444 144.972 20.449 147.624 20.449C149.516 20.449 150.981 21.0187 152.107 21.6495L151.3 24.1725C150.303 23.5621 148.573 22.9924 147.597 22.9924C146.722 22.9924 146.132 23.3247 146.132 23.9826C146.132 24.7151 147.108 25.1017 148.641 25.7596C151.103 26.8312 152.656 27.9435 152.656 30.2698C152.656 32.4537 150.581 34.0543 147.732 34.0543C146.138 34.0543 144.436 33.661 142.517 32.5622H142.523Z" fill="#1D1D1E"/>
<path d="M153.585 32.5622L154.392 29.9714C155.667 30.7378 157.485 31.511 158.882 31.511C159.818 31.511 160.435 30.9955 160.435 30.3308C160.435 29.5984 159.757 29.1846 157.898 28.3911C155.871 27.523 153.91 26.6074 153.91 24.0708C153.91 21.7444 156.033 20.449 158.685 20.449C160.577 20.449 162.042 21.0187 163.168 21.6495L162.361 24.1725C161.364 23.5621 159.635 22.9924 158.658 22.9924C157.783 22.9924 157.193 23.3247 157.193 23.9826C157.193 24.7151 158.17 25.1017 159.703 25.7596C162.165 26.8312 163.718 27.9435 163.718 30.2698C163.718 32.4537 161.642 34.0543 158.794 34.0543C157.2 34.0543 155.498 33.661 153.578 32.5622H153.585Z" fill="#1D1D1E"/>
<path d="M187.287 20.6661L182.898 33.8306H179.806L178.076 27.7129L176.157 33.8306H173.084L168.696 20.6661H172.21L174.909 29.5373L176.754 24.2743L175.567 20.6593H179.026L181.44 29.5306L183.427 22.0904L183.787 20.6525H187.3L187.287 20.6661Z" fill="#1D1D1E"/>
<path d="M194.788 31.1925H190.142L189.233 33.824H185.91L190.875 20.6596H193.968L199.007 33.824H195.677L194.781 31.1925H194.788ZM193.974 28.778L192.482 24.3763L190.97 28.778H193.968H193.974Z" fill="#1D1D1E"/>
<path d="M200.642 20.666H203.836V30.9684H209.194V33.8305H200.642V20.666Z" fill="#1D1D1E"/>
<path d="M210.849 20.666H214.043V30.9684H219.401V33.8305H210.849V20.666Z" fill="#1D1D1E"/>
<path d="M228.645 31.1925H223.999L223.09 33.824H219.767L224.731 20.6596H227.824L232.863 33.824H229.533L228.638 31.1925H228.645ZM227.831 28.778L226.339 24.3763L224.826 28.778H227.824H227.831Z" fill="#1D1D1E"/>
<path d="M245.994 20.666V33.8305H242.793V28.6624H237.686V33.8305H234.491V20.666H237.686V25.8002H242.793V20.666H245.994Z" fill="#1D1D1E"/>
</svg>
